<?xml version="1.0" encoding="UTF-8"?>
<svg width="334px" height="45px" viewBox="0 0 334 45" version="1.1" xmlns="http://www.w3.org/2000/svg" xmlns:xlink="http://www.w3.org/1999/xlink">
    <title>Artboard</title>
    <g id="Artboard" stroke="none" stroke-width="1" fill="none" fill-rule="evenodd">
        <path d="M207.886661,22.6660093 C207.906661,22.8100093 208.778661,23.5500093 212.422661,24.2686759 C215.898661,24.9540092 220.415994,25.3313426 225.142661,25.3313426 C226.463994,25.3313426 227.807994,25.3006759 229.135994,25.2433426 C256.771994,24.0153426 278.103993,23.2260093 294.099993,22.7180093 C293.475993,22.6980093 292.841326,22.6793426 292.203993,22.6593426 L207.889328,22.6593426 C207.889328,22.6620093 207.887995,22.664676 207.886661,22.6660093 L207.886661,22.6660093 Z M206.515995,22.6673426 C206.515995,20.768676 216.725328,18.6166761 229.231994,19.2300094 C298.798659,22.6460093 333.743992,22.6673426 334.171992,22.6673426 C333.743992,22.668676 306.026659,22.6940093 229.231994,26.1046759 C216.718661,26.6606759 206.515995,24.5660092 206.515995,22.6673426" id="path41" fill="#ffffff" fill-rule="nonzero" transform="translate(270.344, 22.6596) scale(-1, 1) rotate(-180) translate(-270.344, -22.6596)"></path>
        <path d="M200.885328,24.5665074 C199.833328,24.5665074 198.978662,23.7105075 198.978662,22.6598408 C198.978662,21.6091742 199.833328,20.7545075 200.885328,20.7545075 C201.935995,20.7545075 202.789328,21.6091742 202.789328,22.6598408 C202.789328,23.7105075 201.935995,24.5665074 200.885328,24.5665074 Z M200.885328,19.4838409 C199.133328,19.4838409 197.707995,20.9091742 197.707995,22.6598408 C197.707995,24.4118408 199.133328,25.8358407 200.885328,25.8358407 C202.634662,25.8358407 204.059995,24.4118408 204.059995,22.6598408 C204.059995,20.9091742 202.634662,19.4838409 200.885328,19.4838409" id="path42" fill="#ffffff" fill-rule="nonzero" transform="translate(200.884, 22.6598) scale(-1, 1) rotate(-180) translate(-200.884, -22.6598)"></path>
        <polyline id="path43" fill="#ffffff" fill-rule="nonzero" transform="translate(205.9747, 22.6598) scale(-1, 1) rotate(-180) translate(-205.9747, -22.6598)" points="207.889328 22.0238408 204.059995 22.0238408 204.059995 23.2958408 207.889328 23.2958408 207.889328 22.0238408"></polyline>
        <polyline id="path44" fill="#ffffff" fill-rule="nonzero" transform="translate(194.46, 22.6598) scale(-1, 1) rotate(-180) translate(-194.46, -22.6598)" points="197.550662 22.0238408 191.369329 22.0238408 191.369329 23.2958408 197.550662 23.2958408 197.550662 22.0238408"></polyline>
        <path d="M126.283997,22.6593426 L41.9693323,22.6593426 C41.331999,22.6793426 40.6973323,22.6980093 40.0733323,22.7180093 C56.0693319,23.2260093 77.4013314,24.0153426 105.037331,25.2433426 C106.365331,25.3006759 107.709331,25.3313426 109.030664,25.3313426 C113.75733,25.3313426 118.274664,24.9540092 121.751997,24.2686759 C125.394664,23.5500093 126.266664,22.8100093 126.286664,22.6660093 C126.286664,22.664676 126.28533,22.6620093 126.283997,22.6593426 L126.283997,22.6593426 Z M104.941331,26.1046759 C28.146666,22.6940093 0.427999989,22.668676 -1.27897692e-13,22.6673426 C0.427999989,22.6673426 35.3746658,22.6460093 104.941331,19.2300094 C117.447997,18.6166761 127.65733,20.768676 127.65733,22.6673426 C127.65733,24.5660092 117.455997,26.6606759 104.941331,26.1046759" id="path45" fill="#ffffff" fill-rule="nonzero" transform="translate(63.8287, 22.6596) scale(-1, 1) rotate(-180) translate(-63.8287, -22.6596)"></path>
        <path d="M131.383997,22.6598408 C131.383997,21.6091742 132.238663,20.7545075 133.28933,20.7545075 C134.339997,20.7545075 135.194663,21.6091742 135.194663,22.6598408 C135.194663,23.7105075 134.339997,24.5665074 133.28933,24.5665074 C132.238663,24.5665074 131.383997,23.7105075 131.383997,22.6598408 Z M130.11333,22.6598408 C130.11333,24.4118408 131.53733,25.8358407 133.28933,25.8358407 C135.039997,25.8358407 136.46533,24.4118408 136.46533,22.6598408 C136.46533,20.9091742 135.039997,19.4838409 133.28933,19.4838409 C131.53733,19.4838409 130.11333,20.9091742 130.11333,22.6598408" id="path46" fill="#ffffff" fill-rule="nonzero" transform="translate(133.2893, 22.6598) scale(-1, 1) rotate(-180) translate(-133.2893, -22.6598)"></path>
        <polyline id="path47" fill="#ffffff" fill-rule="nonzero" transform="translate(128.1993, 22.6598) scale(-1, 1) rotate(-180) translate(-128.1993, -22.6598)" points="126.28533 22.0238408 130.11333 22.0238408 130.11333 23.2958408 126.28533 23.2958408 126.28533 22.0238408"></polyline>
        <polyline id="path48" fill="#ffffff" fill-rule="nonzero" transform="translate(139.7133, 22.6598) scale(-1, 1) rotate(-180) translate(-139.7133, -22.6598)" points="136.622663 22.0238408 142.803996 22.0238408 142.803996 23.2958408 136.622663 23.2958408 136.622663 22.0238408"></polyline>
        <path d="M193.254662,22.3908654 C192.409329,28.6041986 185.287995,30.1655319 180.173329,28.6428653 C172.647996,26.4028653 166.874662,19.6401988 160.333329,15.5655323 C156.337329,13.0775323 150.850663,11.1828657 146.48133,13.9495323 C144.43333,15.2468656 142.827996,17.6908655 143.03733,20.2015321 C143.310663,23.4628654 146.639996,25.8028653 149.68933,24.2521987 C150.695996,23.7401987 151.362663,25.3428654 150.286663,25.669532 C145.806663,27.0228653 141.567996,22.4121988 142.950663,18.0348655 C144.795996,12.196199 151.703996,11.424199 156.674663,13.308199 C164.157329,16.1441989 169.631996,22.7761988 176.634662,26.497532 C180.895995,28.7628653 187.066662,29.8855319 190.287995,25.265532 C193.190662,21.1028655 190.002662,16.2988656 185.086662,17.5215322 C184.526662,17.6601989 184.022662,16.9268656 184.495995,16.5055322 C188.410662,13.020199 193.855995,17.9761989 193.254662,22.3908654" id="path49" fill="#ffffff" fill-rule="nonzero" transform="translate(167.9925, 20.7894) scale(-1, 1) rotate(-180) translate(-167.9925, -20.7894)"></path>
        <path d="M185.243995,35.0614902 C170.021329,34.4868236 156.135996,9.10029088 141.494663,25.0174905 C141.40133,25.1188238 141.21333,24.9814905 141.299996,24.8681572 C143.50533,21.9561572 145.371996,19.350824 149.06933,18.2789573 C152.731996,17.2190907 156.661329,17.8070907 160.131996,19.2321573 C169.470662,23.0694905 175.131996,32.1694903 185.334662,34.4001569 C185.703995,34.4814903 185.623995,35.0761569 185.243995,35.0614902" id="path50" fill="#ffffff" fill-rule="nonzero" transform="translate(163.4258, 26.3993) scale(-1, 1) rotate(-180) translate(-163.4258, -26.3993)"></path>
        <path d="M188.643995,20.653767 C177.558662,28.4057668 166.485329,8.34976728 156.155996,8.25243395 C155.995996,8.25110062 155.997329,8.00976729 156.155996,8.00576729 C161.519996,7.84710063 165.390663,10.9897672 169.519996,14.0404338 C172.023996,15.8911004 174.611996,17.6124337 177.497329,18.8111004 C181.309329,20.3951003 184.451995,20.1191003 188.429329,19.861767 C188.885329,19.833767 188.959995,20.433767 188.643995,20.653767" id="path51" fill="#ffffff" fill-rule="nonzero" transform="translate(172.4364, 15.2175) scale(-1, 1) rotate(-180) translate(-172.4364, -15.2175)"></path>
    </g>
</svg>